<svg xmlns="http://www.w3.org/2000/svg" version="1.1" xmlns:xlink="http://www.w3.org/1999/xlink" xmlns:svgjs="http://svgjs.dev/svgjs" width="1000" height="1000" viewBox="0 0 1000 1000"><rect width="1000" height="1000" fill="#ffffff"></rect><g transform="matrix(0.7,0,0,0.7,149.57575757575756,392.85397074427226)"><svg viewBox="0 0 396 121" data-background-color="#282634" preserveAspectRatio="xMidYMid meet" height="305" width="1000" xmlns="http://www.w3.org/2000/svg" xmlns:xlink="http://www.w3.org/1999/xlink"><g id="tight-bounds" transform="matrix(1,0,0,1,0.2400000000000091,0.22444749387850038)"><svg viewBox="0 0 395.52 120.55110501224299" height="120.55110501224299" width="395.52"><g><svg viewBox="0 0 595.8642790434533 181.61432361451205" height="120.55110501224299" width="395.52"><g transform="matrix(1,0,0,1,0,54.03218167175976)"><svg viewBox="0 0 395.52000000000004 73.54996027099253" height="73.54996027099253" width="395.52000000000004"><g><svg viewBox="0 0 395.52000000000004 73.54996027099253" height="73.54996027099253" width="395.52000000000004"><g><svg viewBox="0 0 395.52000000000004 39.66933408932133" height="39.66933408932133" width="395.52000000000004"><g transform="matrix(1,0,0,1,0,0)"><svg width="395.52000000000004" viewBox="3.25 -37.6 377.60121212121203 38.1" height="39.66933408932133" data-palette-color="#ff4057"><g class="undefined-text-0" data-fill-palette-color="primary" id="text-0"><path d="M18.9-37.6L18.9-37.6Q21.4-37.6 23.73-36.77 26.05-35.95 27.9-34.55 29.75-33.15 30.95-31.3 32.15-29.45 32.45-27.35L32.45-27.35Q32.55-26.9 32.48-26.75 32.4-26.6 32.1-26.6L32.1-26.6 28.35-26.3Q28.1-26.25 28-26.4 27.9-26.55 27.85-26.8L27.85-26.8Q27.15-30 24.83-31.98 22.5-33.95 19.05-33.95L19.05-33.95Q13.85-33.95 11.05-30.1 8.25-26.25 8.25-18.5L8.25-18.5Q8.25-11 11-7.15 13.75-3.3 19.3-3.3L19.3-3.3Q22.85-3.3 25.23-5 27.6-6.7 29.05-10.45L29.05-10.45Q29.2-10.75 29.65-10.65L29.65-10.65 32.6-9.95Q32.75-9.9 32.85-9.75 32.95-9.6 32.85-9.25L32.85-9.25Q32.45-7.8 31.63-6.4 30.8-5 29.6-3.78 28.4-2.55 26.8-1.58 25.2-0.6 23.28-0.05 21.35 0.5 19.1 0.5L19.1 0.5Q14.15 0.5 10.58-1.8 7-4.1 5.13-8.4 3.25-12.7 3.25-18.6L3.25-18.6Q3.25-24.5 5.13-28.78 7-33.05 10.53-35.33 14.05-37.6 18.9-37.6L18.9-37.6ZM66.45-12.35L66.45-12.35Q66.45-7.9 64.92-5.05 63.4-2.2 60.4-0.85 57.4 0.5 53.1 0.5L53.1 0.5Q48.4 0.5 45.45-1 42.5-2.5 41.1-5.55 39.7-8.6 39.7-13.2L39.7-13.2 39.7-36.4Q39.7-37.1 40.3-37.1L40.3-37.1 43.9-37.1Q44.5-37.1 44.5-36.45L44.5-36.45 44.5-12.15Q44.5-7.6 46.75-5.4 49-3.2 53.4-3.2L53.4-3.2Q56.3-3.2 58.32-4.17 60.35-5.15 61.37-7.15 62.4-9.15 62.4-12.3L62.4-12.3 62.4-36.45Q62.4-37.1 62.95-37.1L62.95-37.1 65.9-37.1Q66.45-37.1 66.45-36.5L66.45-36.5 66.45-12.35ZM102.15-0.95L102.15-0.95Q102.3-0.6 102.12-0.3 101.95 0 101.6 0L101.6 0 97.95 0Q97.4 0 97.15-0.6L97.15-0.6 90.7-16.35Q90.45-16.9 89.5-16.9L89.5-16.9 81.05-16.9Q80.7-16.9 80.57-16.75 80.45-16.6 80.45-16.35L80.45-16.35 80.45-0.8Q80.45 0 79.6 0L79.6 0 76.35 0Q75.95 0 75.8-0.18 75.65-0.35 75.65-0.65L75.65-0.65 75.65-36.4Q75.65-37.1 76.25-37.1L76.25-37.1 90.2-37.1Q96.1-37.1 99.37-34.68 102.65-32.25 102.65-27.5L102.65-27.5Q102.65-24.65 101.55-22.68 100.45-20.7 98.77-19.53 97.1-18.35 95.35-17.8L95.35-17.8Q94.95-17.75 95.15-17.3L95.15-17.3 102.15-0.95ZM88.8-20.4L88.8-20.4Q93.2-20.4 95.42-22 97.65-23.6 97.65-27.05L97.65-27.05Q97.65-30.4 95.67-32 93.7-33.6 89.95-33.6L89.95-33.6 81.15-33.6Q80.45-33.6 80.45-33.05L80.45-33.05 80.45-21.05Q80.45-20.4 80.9-20.4L80.9-20.4 88.8-20.4ZM107.69-33.95L107.69-36.55Q107.69-36.8 107.82-36.95 107.94-37.1 108.29-37.1L108.29-37.1 135.19-37.1Q135.49-37.1 135.64-36.95 135.79-36.8 135.79-36.55L135.79-36.55 135.79-33.95Q135.79-33.45 135.19-33.45L135.19-33.45 125.04-33.45Q124.49-33.45 124.49-32.95L124.49-32.95 124.49-0.65Q124.49 0 123.89 0L123.89 0 120.29 0Q119.69 0 119.69-0.65L119.69-0.65 119.69-32.9Q119.69-33.45 119.19-33.45L119.19-33.45 108.29-33.45Q107.69-33.45 107.69-33.95L107.69-33.95ZM143.29-37.1L146.89-37.1Q147.49-37.1 147.49-36.45L147.49-36.45 147.49-0.85Q147.49-0.35 147.29-0.18 147.09 0 146.59 0L146.59 0 143.44 0Q142.99 0 142.84-0.15 142.69-0.3 142.69-0.7L142.69-0.7 142.69-36.4Q142.69-37.1 143.29-37.1L143.29-37.1ZM177.24-30.2L177.24-30.2Q175.94-31.75 173.89-32.85 171.84-33.95 168.74-33.95L168.74-33.95Q164.99-33.95 162.84-32.3 160.69-30.65 160.69-27.7L160.69-27.7Q160.69-26.9 161.06-25.85 161.44-24.8 162.59-23.8 163.74-22.8 166.04-22L166.04-22 173.29-19.6Q177.84-18.1 179.74-15.63 181.64-13.15 181.64-9.8L181.64-9.8Q181.64-6.6 180.04-4.28 178.44-1.95 175.49-0.73 172.54 0.5 168.39 0.5L168.39 0.5Q165.39 0.5 162.84-0.23 160.29-0.95 158.31-2.33 156.34-3.7 154.94-5.75L154.94-5.75Q154.69-6.1 154.76-6.38 154.84-6.65 155.24-6.95L155.24-6.95 157.04-8.2Q157.54-8.5 157.81-8.5 158.09-8.5 158.29-8.2L158.29-8.2Q159.64-6.5 160.94-5.38 162.24-4.25 163.96-3.7 165.69-3.15 168.19-3.15L168.19-3.15Q172.14-3.15 174.59-4.58 177.04-6 177.04-9.3L177.04-9.3Q177.04-10.55 176.54-11.58 176.04-12.6 174.84-13.48 173.64-14.35 171.39-15.2L171.39-15.2 163.79-17.8Q161.04-18.75 159.34-20.25 157.64-21.75 156.86-23.55 156.09-25.35 156.09-27.25L156.09-27.25Q156.09-30.4 157.69-32.73 159.29-35.05 162.11-36.33 164.94-37.6 168.74-37.6L168.74-37.6Q171.29-37.6 173.41-37 175.54-36.4 177.31-35.3 179.09-34.2 180.44-32.65L180.44-32.65Q180.64-32.45 180.69-32.2 180.74-31.95 180.44-31.7L180.44-31.7 178.14-29.9Q177.89-29.75 177.74-29.83 177.59-29.9 177.24-30.2L177.24-30.2Z" fill="#000000" data-fill-palette-color="primary"></path><path d="M208.29-17.35L191.69-17.35Q191.29-17.35 191.29-16.95L191.29-16.95 191.29-0.75Q191.29 0 190.44 0L190.44 0 187.19 0Q186.79 0 186.64-0.18 186.49-0.35 186.49-0.7L186.49-0.7 186.49-36.4Q186.49-37.1 187.09-37.1L187.09-37.1 190.69-37.1Q191.29-37.1 191.29-36.45L191.29-36.45 191.29-21.75Q191.29-21.15 191.84-21.15L191.84-21.15 208.24-21.15Q208.74-21.15 208.74-21.75L208.74-21.75 208.74-36.5Q208.74-37.1 209.29-37.1L209.29-37.1 212.94-37.1Q213.54-37.1 213.54-36.4L213.54-36.4 213.54-0.7Q213.54-0.35 213.39-0.18 213.24 0 212.84 0L212.84 0 209.59 0Q208.74 0 208.74-0.75L208.74-0.75 208.74-16.9Q208.74-17.35 208.29-17.35L208.29-17.35ZM223.24-36.4L223.24-36.4Q223.24-37.1 223.84-37.1L223.84-37.1 246.29-37.1Q246.79-37.1 246.79-36.55L246.79-36.55 246.79-34Q246.79-33.4 246.14-33.4L246.14-33.4 228.69-33.4Q228.04-33.4 228.04-32.8L228.04-32.8 228.04-21.1Q228.04-20.55 228.59-20.55L228.59-20.55 241.54-20.55Q242.09-20.55 242.09-20L242.09-20 242.09-17.35Q242.09-17.15 241.99-17.03 241.89-16.9 241.54-16.9L241.54-16.9 228.59-16.9Q228.04-16.9 228.04-16.35L228.04-16.35 228.04-4.2Q228.04-3.7 228.54-3.7L228.54-3.7 246.89-3.7Q247.44-3.7 247.44-3.2L247.44-3.2 247.44-0.55Q247.44-0.3 247.31-0.15 247.19 0 246.89 0L246.89 0 223.94 0Q223.24 0 223.24-0.7L223.24-0.7 223.24-36.4ZM279.29-37.1L282.24-37.1Q282.79-37.1 282.79-36.5L282.79-36.5 282.79-0.6Q282.79-0.3 282.61-0.15 282.44 0 282.14 0L282.14 0 279.69 0Q279.39 0 279.14-0.05 278.89-0.1 278.64-0.4L278.64-0.4 259.34-28.45Q259.09-28.8 258.94-28.75 258.79-28.7 258.79-28.4L258.79-28.4 258.79-0.65Q258.79 0 258.09 0L258.09 0 255.29 0Q254.64 0 254.64-0.65L254.64-0.65 254.64-36.4Q254.64-37.1 255.29-37.1L255.29-37.1 258.14-37.1Q258.54-37.1 258.74-37.02 258.94-36.95 259.19-36.6L259.19-36.6 277.94-9.15Q278.24-8.8 278.46-8.9 278.69-9 278.69-9.3L278.69-9.3 278.69-36.5Q278.69-37.1 279.29-37.1L279.29-37.1ZM292.48-36.4L292.48-36.4Q292.48-37.1 293.08-37.1L293.08-37.1 296.68-37.1Q297.28-37.1 297.28-36.45L297.28-36.45 297.28-4.2Q297.28-3.7 297.78-3.7L297.78-3.7 315.08-3.7Q315.68-3.7 315.68-3.2L315.68-3.2 315.68-0.55Q315.68-0.3 315.53-0.15 315.38 0 315.08 0L315.08 0 293.18 0Q292.78 0 292.63-0.18 292.48-0.35 292.48-0.7L292.48-0.7 292.48-36.4ZM322.58-36.4L322.58-36.4Q322.58-37.1 323.18-37.1L323.18-37.1 345.63-37.1Q346.13-37.1 346.13-36.55L346.13-36.55 346.13-34Q346.13-33.4 345.48-33.4L345.48-33.4 328.03-33.4Q327.38-33.4 327.38-32.8L327.38-32.8 327.38-21.1Q327.38-20.55 327.93-20.55L327.93-20.55 340.88-20.55Q341.43-20.55 341.43-20L341.43-20 341.43-17.35Q341.43-17.15 341.33-17.03 341.23-16.9 340.88-16.9L340.88-16.9 327.93-16.9Q327.38-16.9 327.38-16.35L327.38-16.35 327.38-4.2Q327.38-3.7 327.88-3.7L327.88-3.7 346.23-3.7Q346.78-3.7 346.78-3.2L346.78-3.2 346.78-0.55Q346.78-0.3 346.66-0.15 346.53 0 346.23 0L346.23 0 323.28 0Q322.58 0 322.58-0.7L322.58-0.7 322.58-36.4ZM380.33-37.1L380.33-37.1Q380.68-37.1 380.8-36.9 380.93-36.7 380.73-36.4L380.73-36.4 368.83-16.5Q368.63-16.2 368.58-15.9 368.53-15.6 368.53-14.85L368.53-14.85 368.53-0.85Q368.53 0 367.58 0L367.58 0 364.58 0Q364.08 0 363.93-0.2 363.78-0.4 363.78-0.75L363.78-0.75 363.78-14.65Q363.78-15.15 363.68-15.4 363.58-15.65 363.38-16L363.38-16 351.33-36.3Q351.13-36.65 351.25-36.88 351.38-37.1 351.88-37.1L351.88-37.1 355.48-37.1Q355.93-37.1 356.13-36.98 356.33-36.85 356.53-36.5L356.53-36.5 365.83-20.5Q366.13-19.95 366.38-19.93 366.63-19.9 366.93-20.4L366.93-20.4 376.18-36.5Q376.38-36.9 376.58-37 376.78-37.1 377.23-37.1L377.23-37.1 380.33-37.1Z" fill="#000000" data-fill-palette-color="secondary"></path></g></svg></g></svg></g><g transform="matrix(1,0,0,1,203.01234769171185,49.03431180379195)"><svg viewBox="0 0 192.5076523082882 24.515648467200585" height="24.515648467200585" width="192.5076523082882"><g transform="matrix(1,0,0,1,0,0)"><svg width="192.5076523082882" viewBox="3.8299999999999996 -39.87 326.07 41.529999999999994" height="24.515648467200585" data-palette-color="#dcdcdc"><path d="M4.27-0.37L3.86-9.08Q3.86-9.11 3.85-9.13 3.83-9.16 3.83-9.18L3.83-9.18Q3.83-9.59 4.27-9.59L4.27-9.59Q4.49-9.59 4.76-9.38L4.76-9.38Q6.08-8.13 7.69-7.4 9.3-6.67 11.21-6.67L11.21-6.67Q11.72-6.67 12.38-6.77 13.04-6.88 13.62-7.14 14.21-7.4 14.61-7.81 15.01-8.23 15.01-8.86L15.01-8.86Q15.01-9.57 14.67-10.13 14.33-10.69 13.77-11.08L13.77-11.08Q13.55-11.23 13.11-11.57 12.67-11.91 12.11-12.35 11.55-12.79 10.94-13.29 10.33-13.79 9.78-14.25 9.23-14.7 8.79-15.06 8.35-15.43 8.13-15.63L8.13-15.63Q6.69-16.7 5.85-17.8 5-18.9 4.57-20.09 4.13-21.29 4-22.57 3.88-23.85 3.88-25.29L3.88-25.29Q3.88-27.44 4.91-29.37 5.93-31.3 7.8-32.73 9.67-34.16 12.28-35 14.89-35.84 18.09-35.84L18.09-35.84Q18.48-35.84 19.26-35.75 20.04-35.67 20.98-35.47 21.92-35.28 22.9-34.94 23.88-34.59 24.68-34.06L24.68-34.06Q24.95-33.86 25.11-33.67 25.27-33.47 25.32-33.06L25.32-33.06Q25.44-31.08 25.51-29.16 25.59-27.25 25.71-25.1L25.71-25.1Q25.71-24.68 25.54-24.55 25.37-24.41 25.1-24.41L25.1-24.41Q24.83-24.41 24.68-24.56L24.68-24.56Q23.97-25.27 23.22-25.95 22.46-26.64 21.63-27.16 20.8-27.69 19.86-28 18.92-28.32 17.82-28.32L17.82-28.32Q17.16-28.32 16.5-28.21 15.84-28.1 15.31-27.81 14.77-27.51 14.44-27 14.11-26.49 14.11-25.71L14.11-25.71Q14.11-24.88 14.32-24.27 14.53-23.66 15.36-23.12L15.36-23.12 21.22-19.14Q22.83-17.99 23.83-16.86 24.83-15.72 25.39-14.6 25.95-13.48 26.16-12.39 26.37-11.3 26.37-10.25L26.37-10.25Q26.37-8.54 25.81-7.03 25.24-5.52 24.27-4.24 23.29-2.95 21.98-1.94 20.68-0.93 19.19-0.21 17.7 0.51 16.1 0.89 14.5 1.27 12.96 1.27L12.96 1.27Q11.77 1.27 10.61 1.23 9.45 1.2 8.35 1.04 7.25 0.88 6.23 0.55 5.2 0.22 4.27-0.37L4.27-0.37ZM42.97 1.27L42.97 1.27Q39.52 1.27 36.92 0.15 34.32-0.98 32.57-2.84 30.81-4.71 29.93-7.14 29.05-9.57 29.05-12.18L29.05-12.18Q29.05-14.79 29.9-17.15 30.76-19.51 32.3-21.37 33.84-23.24 35.98-24.5 38.13-25.76 40.72-26.2L40.72-26.2Q41.11-26.22 41.11-26.37L41.11-26.37Q41.11-26.64 41.05-26.87 40.99-27.1 40.99-27.27L40.99-27.27Q40.99-27.54 41.09-27.64 41.18-27.73 41.31-27.73L41.31-27.73Q45.97-27.73 49.24-26.67 52.51-25.61 54.56-23.78 56.61-21.95 57.54-19.46 58.47-16.97 58.47-14.11L58.47-14.11Q58.47-10.47 57.25-7.62 56.03-4.76 53.92-2.78 51.8-0.81 48.98 0.23 46.16 1.27 42.97 1.27ZM38.45-12.45L38.45-12.45Q38.45-11.13 38.73-9.84 39.01-8.54 39.66-7.5 40.31-6.45 41.35-5.8 42.4-5.15 43.97-5.15L43.97-5.15Q45.09-5.2 45.93-5.65 46.77-6.1 47.39-6.82 48-7.54 48.4-8.45 48.8-9.35 49.03-10.31 49.27-11.28 49.36-12.21 49.46-13.13 49.46-13.89L49.46-13.89Q49.46-15.16 49.08-16.38 48.7-17.6 47.97-18.53 47.24-19.46 46.15-20.03 45.07-20.61 43.65-20.61L43.65-20.61Q42.19-20.61 41.18-19.74 40.18-18.87 39.58-17.6 38.99-16.33 38.72-14.93 38.45-13.53 38.45-12.45ZM64.33 0.37L64.33 0.37Q64.35 0.1 64.44-0.79 64.52-1.68 64.64-3.05 64.77-4.42 64.92-6.19 65.08-7.96 65.28-10 65.47-12.04 65.68-14.26 65.89-16.48 66.11-18.75L66.11-18.75 62.86-18.75Q61.54-18.75 60.96-18.86 60.37-18.97 60.37-19.31L60.37-19.31Q60.37-19.41 60.62-19.84 60.86-20.26 61.24-20.86 61.62-21.46 62.06-22.14 62.5-22.83 62.9-23.43 63.3-24.02 63.59-24.46 63.89-24.9 63.96-25L63.96-25 66.94-25 67.43-28.88Q67.77-31.96 68.66-34.06 69.55-36.16 70.88-37.45 72.21-38.75 73.92-39.31 75.63-39.87 77.58-39.87L77.58-39.87Q79.54-39.87 81.65-39.39 83.76-38.92 85.91-38.09L85.91-38.09Q86.37-37.89 86.6-37.76 86.84-37.62 86.84-37.4L86.84-37.4Q86.84-37.21 86.66-36.89L86.66-36.89Q85.88-35.38 85.51-34.45 85.13-33.52 84.91-32.98 84.69-32.45 84.54-32.26 84.39-32.08 84.1-32.08L84.1-32.08Q83.95-32.08 83.8-32.15 83.64-32.23 83.42-32.32L83.42-32.32Q82.56-32.64 81.7-32.9 80.83-33.15 80.05-33.15L80.05-33.15Q78.95-33.15 78.16-32.47 77.36-31.79 76.9-29.88L76.9-29.88Q76.63-28.78 76.46-27.51 76.29-26.25 76.17-25L76.17-25 82.54-25Q82.73-25 82.92-24.87 83.1-24.73 83.1-24.41L83.1-24.41Q83.1-24.29 82.81-23.54 82.51-22.78 81.98-21.56L81.98-21.56 81.1-19.58Q80.93-19.21 80.74-19.04 80.56-18.87 80-18.82L80-18.82 75.78-18.82Q75.51-16.28 75.26-13.79 75.02-11.3 74.8-9.12 74.58-6.93 74.41-5.24 74.24-3.54 74.14-2.61L74.14-2.61Q74.12-2.54 74.12-2.34L74.12-2.34Q74.12-2.25 74.13-2.17 74.14-2.1 74.14-2.05L74.14-2.05Q74.14-1.83 73.98-1.7 73.82-1.56 73.16-1.39L73.16-1.39 66.74 0.88Q66.47 0.98 66.04 1.12 65.6 1.27 65.18 1.27L65.18 1.27Q64.77 1.27 64.55 1.07 64.33 0.88 64.33 0.37ZM101.51-18.82L96.97-18.82Q96.62-16.26 96.32-13.71 96.01-11.16 95.94-8.94L95.94-8.94Q95.94-7.98 96.09-7.35 96.23-6.71 96.51-6.35 96.79-5.98 97.18-5.82 97.58-5.66 98.06-5.66L98.06-5.66Q98.85-5.66 99.77-5.9 100.7-6.13 101.63-6.49L101.63-6.49Q101.92-6.62 102.13-6.68 102.34-6.74 102.48-6.74L102.48-6.74Q102.73-6.74 102.81-6.52 102.9-6.3 102.98-5.75 103.07-5.2 103.24-4.27 103.41-3.34 103.8-1.93L103.8-1.93Q103.83-1.81 103.84-1.72 103.85-1.64 103.85-1.56L103.85-1.56Q103.85-1.22 103.59-1.07 103.34-0.93 102.75-0.73L102.75-0.73Q101.75-0.39 100.64-0.04 99.53 0.32 98.44 0.61 97.36 0.9 96.35 1.09 95.35 1.27 94.6 1.27L94.6 1.27Q90.52 1.27 88.65-0.76 86.78-2.78 86.78-6.93L86.78-6.93Q86.78-7.64 86.83-8.39 86.88-9.13 86.96-9.94L86.96-9.94Q87.2-12.38 87.38-14.56 87.57-16.75 87.76-18.75L87.76-18.75 85.2-18.75Q83.88-18.75 83.29-18.86 82.71-18.97 82.71-19.31L82.71-19.31Q82.71-19.41 82.95-19.84 83.2-20.26 83.57-20.86 83.95-21.46 84.39-22.14 84.83-22.83 85.23-23.43 85.64-24.02 85.93-24.46 86.22-24.9 86.3-25L86.3-25 88.03-25Q88.25-26.86 88.38-28.11 88.52-29.37 88.6-30.2 88.69-31.03 88.76-31.48 88.84-31.93 88.92-32.15 89.01-32.37 89.14-32.43 89.27-32.5 89.49-32.54L89.49-32.54Q90.59-32.76 91.62-32.95 92.64-33.13 93.67-33.33 94.69-33.52 95.76-33.78 96.82-34.03 97.97-34.38L97.97-34.38Q98.04-34.38 98.06-34.39 98.09-34.4 98.16-34.4L98.16-34.4Q98.45-34.4 98.45-34.2L98.45-34.2 98.45-34.16Q98.33-32.81 98.08-30.42 97.82-28.03 97.5-25L97.5-25 104.05-25Q104.24-25 104.42-24.87 104.61-24.73 104.61-24.41L104.61-24.41Q104.61-24.29 104.31-23.54 104.02-22.78 103.48-21.56L103.48-21.56 102.6-19.58Q102.43-19.21 102.25-19.04 102.07-18.87 101.51-18.82L101.51-18.82ZM117.96-10.11L121.79-24.85Q121.87-25.12 122.21-25.2L122.21-25.2Q124.18-25.63 126.26-26.1 128.33-26.56 130.24-27.25L130.24-27.25Q130.58-27.25 130.58-27L130.58-27 133.07-10.35 137.73-27Q137.83-27.25 138.1-27.25L138.1-27.25Q138.17-27.25 138.2-27.23 138.22-27.22 138.3-27.22L138.3-27.22Q140.13-26.51 142.06-26.06 143.98-25.61 145.89-25.2L145.89-25.2Q146.35-25.1 146.35-24.66L146.35-24.66Q146.35-24.34 146.06-23.68L146.06-23.68 138.2-1.9Q138-1.49 137.86-1.21 137.71-0.93 137.56-0.77 137.42-0.61 137.25-0.52 137.07-0.44 136.83-0.39L136.83-0.39Q134.98 0 133.07 0.46 131.17 0.93 129.12 1.64L129.12 1.64Q129.07 1.64 129.04 1.65 129.02 1.66 128.99 1.66L128.99 1.66 128.82 1.66Q128.7 1.66 128.63 1.57 128.55 1.49 128.53 1.42L128.53 1.42Q128.26 0.37 127.92-1.2 127.58-2.76 127.19-4.66 126.8-6.57 126.36-8.74 125.92-10.91 125.45-13.21L125.45-13.21 122.35-2.29Q122.23-1.86 122.1-1.57 121.96-1.29 121.79-1.14 121.62-0.98 121.43-0.9 121.23-0.83 120.99-0.78L120.99-0.78Q119.13-0.42 117.23 0.06 115.32 0.54 113.27 1.25L113.27 1.25Q113.22 1.25 113.2 1.26 113.17 1.27 113.15 1.27L113.15 1.27 112.98 1.27Q112.86 1.27 112.77 1.18 112.69 1.1 112.69 1.03L112.69 1.03Q112.34-0.05 111.9-1.7 111.46-3.34 110.96-5.38 110.46-7.42 109.93-9.74 109.39-12.06 108.83-14.45 108.27-16.85 107.72-19.2 107.17-21.56 106.66-23.68L106.66-23.68Q106.48-24.07 106.46-24.33 106.44-24.58 106.44-24.76L106.44-24.76Q106.44-25.1 106.83-25.2L106.83-25.2Q108.73-25.61 110.78-26.06 112.83-26.51 114.66-27.22L114.66-27.22Q114.74-27.25 114.88-27.25L114.88-27.25Q115.2-27.25 115.22-27L115.22-27 117.96-10.11ZM174.99-27.66L172.47-4.91Q172.45-4.81 172.45-4.72 172.45-4.64 172.45-4.57L172.45-4.57Q172.45-3.96 172.64-3.55 172.84-3.15 173.07-2.89 173.3-2.64 173.5-2.48 173.69-2.32 173.69-2.2L173.69-2.2Q173.69-1.86 172.96-1.56L172.96-1.56 166.39 1.25Q166.37 1.27 166.22 1.27L166.22 1.27Q166.03 1.27 165.83 0.93 165.64 0.59 165.45 0.06 165.27-0.46 165.11-1.06 164.95-1.66 164.83-2.17L164.83-2.17Q163.29-0.39 161.51 0.44 159.73 1.27 157.97 1.27L157.97 1.27Q155.92 1.27 153.97 0.37 152.01-0.54 150.5-2.21 148.99-3.88 148.07-6.25 147.16-8.62 147.16-11.57L147.16-11.57Q147.16-15.06 148.17-17.94 149.18-20.83 150.92-22.9 152.65-24.98 154.96-26.11 157.26-27.25 159.85-27.25L159.85-27.25Q161.68-27.25 163.32-26.5 164.95-25.76 166.42-24.58L166.42-24.58Q166.56-25.32 166.59-25.76 166.61-26.2 166.7-26.44 166.78-26.68 167.03-26.77 167.27-26.86 167.83-26.9L167.83-26.9Q169.59-27.15 171.34-27.36 173.08-27.56 174.99-27.66L174.99-27.66ZM164.15-6.88L165.17-14.11Q165.42-15.5 165.5-16.74 165.59-17.97 165.64-18.99L165.64-18.99Q165.25-19.29 164.79-19.6 164.34-19.92 163.82-20.2 163.29-20.48 162.72-20.65 162.15-20.83 161.51-20.83L161.51-20.83Q160.19-20.83 159.3-19.97 158.41-19.12 157.86-17.87 157.31-16.63 157.08-15.23 156.85-13.84 156.85-12.77L156.85-12.77Q156.85-8.91 157.86-7.12 158.87-5.32 160.68-5.32L160.68-5.32Q161.41-5.32 162.32-5.74 163.22-6.15 164.15-6.88L164.15-6.88ZM199.5-27.44L197.98-19.87Q197.47-19.92 196.84-19.98 196.2-20.04 195.49-20.04L195.49-20.04Q194.42-20.04 193.31-19.86 192.2-19.68 191.24-19.14 190.29-18.6 189.61-17.66 188.93-16.72 188.73-15.23L188.73-15.23Q188.56-13.43 188.45-12.27 188.34-11.11 188.29-10.36 188.24-9.62 188.21-9.17 188.17-8.72 188.14-8.33L188.14-8.33Q188.14-8.23 188.11-7.79 188.07-7.35 188-6.76 187.92-6.18 187.86-5.49 187.8-4.81 187.73-4.22 187.66-3.64 187.62-3.2 187.58-2.76 187.58-2.66L187.58-2.66Q187.58-2.47 187.59-2.33 187.61-2.2 187.61-2.08L187.61-2.08Q187.61-1.88 187.42-1.75 187.24-1.61 186.61-1.44L186.61-1.44 180.14 0.88Q179.87 0.98 179.43 1.12 178.99 1.27 178.57 1.27L178.57 1.27Q178.23 1.27 177.98 1.1 177.72 0.93 177.72 0.51L177.72 0.51 179.82-23.68Q179.89-24.49 180-24.79 180.11-25.1 180.55-25.2L180.55-25.2Q182.77-25.63 185.14-26.09 187.51-26.54 189.73-27.25L189.73-27.25Q189.93-27.25 189.96-27.19 190-27.12 190-27L190-27Q190-26.95 189.99-26.86 189.98-26.76 189.91-26.42 189.85-26.07 189.74-25.38 189.63-24.68 189.44-23.44L189.44-23.44Q190.56-24.32 191.92-25.05 193.27-25.78 194.64-26.31 196.01-26.83 197.28-27.14 198.54-27.44 199.5-27.44L199.5-27.44ZM214.12-27.25L214.12-27.25Q216.44-27.25 218.33-26.38 220.22-25.51 221.58-24.13 222.93-22.75 223.66-21.04 224.4-19.34 224.4-17.63L224.4-17.63Q224.4-16.11 223.47-14.59 222.54-13.06 220.87-11.84 219.2-10.62 216.85-9.86 214.51-9.11 211.7-9.11L211.7-9.11Q210.24-9.11 208.63-9.4L208.63-9.4Q208.72-8.35 209.24-7.59 209.75-6.84 210.53-6.35 211.31-5.86 212.3-5.63 213.29-5.4 214.34-5.4L214.34-5.4Q215.51-5.4 216.6-5.6 217.68-5.81 218.68-6.15 219.68-6.49 220.61-6.91 221.54-7.32 222.37-7.74L222.37-7.74Q222.59-7.79 222.75-7.82 222.91-7.86 223.05-7.86L223.05-7.86Q223.05-7.86 223.04-7.47 223.03-7.08 223.03-6.37 223.03-5.66 223.02-4.66 223-3.66 222.98-2.44L222.98-2.44Q223.05-2.32 223.08-2.2 223.1-2.08 223.1-2L223.1-2Q223.1-1.71 222.57-1.37 222.03-1.03 221.16-0.66 220.3-0.29 219.18 0.05 218.07 0.39 216.93 0.67 215.78 0.95 214.7 1.11 213.63 1.27 212.82 1.27L212.82 1.27Q210.19 1.27 207.71 0.35 205.23-0.56 203.32-2.27 201.4-3.98 200.25-6.42 199.1-8.86 199.1-11.91L199.1-11.91Q199.1-15.11 200.2-17.91 201.3-20.7 203.29-22.78 205.28-24.85 208.04-26.05 210.8-27.25 214.12-27.25ZM213.83-20.75L213.83-20.75Q212.82-20.75 211.98-20.32 211.14-19.9 210.44-19.1 209.75-18.31 209.24-17.2 208.72-16.09 208.41-14.75L208.41-14.75Q210.92-15.19 212.58-15.67 214.24-16.16 215.24-16.66 216.24-17.16 216.66-17.66 217.07-18.16 217.07-18.63L217.07-18.63Q217.07-19.07 216.74-19.46 216.41-19.85 215.92-20.14 215.44-20.43 214.86-20.59 214.29-20.75 213.83-20.75ZM243.87 1.27L239.43 1.27Q239.16 1.22 239.04 1 238.92 0.78 238.92 0.51L238.92 0.51Q238.92 0.29 239.02 0.12L239.02 0.12 242.02-5.62Q242.04-5.71 242.1-6.37 242.17-7.03 242.24-8.02 242.31-9.01 242.4-10.23 242.48-11.45 242.58-12.65 242.68-13.84 242.76-14.93 242.85-16.02 242.92-16.75L242.92-16.75Q242.95-17.04 243-17.64 243.04-18.24 243.09-19.02 243.14-19.8 243.21-20.7 243.29-21.61 243.36-22.51L243.36-22.51 243.7-27.61Q243.04-27.47 242.34-27.31 241.63-27.15 240.96-27.03 240.29-26.9 239.69-26.82 239.09-26.73 238.65-26.73L238.65-26.73Q238.38-26.73 238.25-26.98 238.11-27.22 238.11-27.49L238.11-27.49Q238.11-27.81 238.26-27.95L238.26-27.95 244.46-33.74Q245.22-34.42 245.96-34.85 246.71-35.28 247.76-35.52 248.81-35.77 250.33-35.85 251.86-35.94 254.2-35.94L254.2-35.94Q258.21-35.94 261.31-35.11 264.41-34.28 266.55-32.74L266.55-32.74Q268.14-31.64 269.39-30.44 270.63-29.25 271.49-27.8 272.34-26.34 272.78-24.6 273.22-22.85 273.22-20.65L273.22-20.65Q273.22-16.48 271.97-13.23 270.73-9.99 268.58-7.56 266.43-5.13 263.56-3.44 260.7-1.76 257.44-0.71 254.18 0.34 250.7 0.81 247.22 1.27 243.87 1.27L243.87 1.27ZM253.62-28.13L253.62-28.13 253.32-25.17Q253.18-23.63 253.02-21.89 252.86-20.14 252.71-18.35 252.57-16.55 252.42-14.81 252.27-13.06 252.15-11.55 252.03-10.03 251.93-8.84 251.83-7.64 251.76-6.93L251.76-6.93 251.69-6.2Q254.64-6.2 256.68-7.15 258.72-8.11 259.99-9.78 261.26-11.45 261.83-13.7 262.4-15.94 262.4-18.53L262.4-18.53Q262.4-20.39 261.89-22.11 261.38-23.83 260.4-25.39L260.4-25.39Q259.43-26.95 258.01-27.73 256.59-28.52 254.81-28.52L254.81-28.52Q254.52-28.52 254.18-28.38 253.83-28.25 253.62-28.13ZM290.43-27.25L290.43-27.25Q292.75-27.25 294.64-26.38 296.53-25.51 297.89-24.13 299.24-22.75 299.98-21.04 300.71-19.34 300.71-17.63L300.71-17.63Q300.71-16.11 299.78-14.59 298.85-13.06 297.18-11.84 295.51-10.62 293.16-9.86 290.82-9.11 288.01-9.11L288.01-9.11Q286.55-9.11 284.94-9.4L284.94-9.4Q285.03-8.35 285.55-7.59 286.06-6.84 286.84-6.35 287.62-5.86 288.61-5.63 289.6-5.4 290.65-5.4L290.65-5.4Q291.82-5.4 292.91-5.6 293.99-5.81 294.99-6.15 296-6.49 296.92-6.91 297.85-7.32 298.68-7.74L298.68-7.74Q298.9-7.79 299.06-7.82 299.22-7.86 299.36-7.86L299.36-7.86Q299.36-7.86 299.35-7.47 299.34-7.08 299.34-6.37 299.34-5.66 299.33-4.66 299.32-3.66 299.29-2.44L299.29-2.44Q299.36-2.32 299.39-2.2 299.41-2.08 299.41-2L299.41-2Q299.41-1.71 298.88-1.37 298.34-1.03 297.47-0.66 296.61-0.29 295.5 0.05 294.38 0.39 293.24 0.67 292.09 0.95 291.02 1.11 289.94 1.27 289.14 1.27L289.14 1.27Q286.5 1.27 284.02 0.35 281.54-0.56 279.63-2.27 277.71-3.98 276.56-6.42 275.41-8.86 275.41-11.91L275.41-11.91Q275.41-15.11 276.51-17.91 277.61-20.7 279.6-22.78 281.59-24.85 284.35-26.05 287.11-27.25 290.43-27.25ZM290.14-20.75L290.14-20.75Q289.14-20.75 288.29-20.32 287.45-19.9 286.75-19.1 286.06-18.31 285.55-17.2 285.03-16.09 284.72-14.75L284.72-14.75Q287.23-15.19 288.89-15.67 290.55-16.16 291.55-16.66 292.55-17.16 292.97-17.66 293.38-18.16 293.38-18.63L293.38-18.63Q293.38-19.07 293.05-19.46 292.72-19.85 292.24-20.14 291.75-20.43 291.17-20.59 290.6-20.75 290.14-20.75ZM321.29-27L321.29-27Q321.38-27.25 321.65-27.25L321.65-27.25Q321.7-27.25 321.75-27.23 321.8-27.22 321.85-27.22L321.85-27.22Q323.68-26.51 325.61-26.06 327.54-25.61 329.44-25.2L329.44-25.2Q329.9-25.1 329.9-24.66L329.9-24.66Q329.9-24.34 329.61-23.68L329.61-23.68 319.55-2.29Q319.36-1.86 319.21-1.59 319.06-1.32 318.92-1.15 318.77-0.98 318.6-0.9 318.43-0.83 318.19-0.78L318.19-0.78Q316.33-0.42 314.43 0.06 312.52 0.54 310.47 1.25L310.47 1.25Q310.42 1.25 310.4 1.26 310.37 1.27 310.35 1.27L310.35 1.27 310.18 1.27Q310.06 1.27 309.98 1.18 309.91 1.1 309.88 1.03L309.88 1.03Q309.52-0.02 309.04-1.68 308.57-3.34 308-5.4 307.44-7.45 306.83-9.77 306.22-12.08 305.59-14.48 304.95-16.87 304.33-19.23 303.71-21.58 303.12-23.68L303.12-23.68Q302.9-24.44 302.9-24.76L302.9-24.76Q302.9-25.1 303.29-25.2L303.29-25.2Q305.2-25.61 307.25-26.06 309.3-26.51 311.13-27.22L311.13-27.22Q311.2-27.25 311.35-27.25L311.35-27.25Q311.67-27.25 311.69-27L311.69-27 314.91-10.6Q315.04-10.89 315.33-11.66 315.62-12.43 316.04-13.5 316.45-14.58 316.95-15.87 317.45-17.16 317.98-18.51 318.5-19.85 319.02-21.18 319.53-22.51 319.98-23.66 320.43-24.8 320.77-25.68 321.12-26.56 321.29-27Z" opacity="1" transform="matrix(1,0,0,1,0,0)" fill="#000000" class="undefined-text-1" data-fill-palette-color="secondary" id="text-1"></path></svg></g></svg></g></svg></g></svg></g><g transform="matrix(1,0,0,1,414.2499554289413,0)"><svg viewBox="0 0 181.61432361451205 181.61432361451205" height="181.61432361451205" width="181.61432361451205"><g><svg></svg></g><g id="icon-0"><svg viewBox="0 0 181.61432361451205 181.61432361451205" height="181.61432361451205" width="181.61432361451205"><g><path d="M0 90.807c0-50.151 40.656-90.807 90.807-90.807 50.151 0 90.807 40.656 90.807 90.807 0 50.151-40.656 90.807-90.807 90.807-50.151 0-90.807-40.656-90.807-90.807zM90.807 178.037c48.176 0 87.23-39.054 87.23-87.23 0-48.176-39.054-87.23-87.23-87.23-48.176 0-87.23 39.054-87.23 87.23 0 48.176 39.054 87.23 87.23 87.23z" data-fill-palette-color="accent" fill="#000000" stroke="transparent"></path></g><g transform="matrix(1,0,0,1,35.934225649978174,44.169747451051535)"><svg viewBox="0 0 109.7458723145557 93.27482871240898" height="93.27482871240898" width="109.7458723145557"><g><svg xmlns="http://www.w3.org/2000/svg" data-name="Layer 1" viewBox="1.7599675387285523 8.999999999914726 96.48006492254288 82.00000000017054" x="0" y="0" height="93.27482871240898" width="109.7458723145557" class="icon-wb-0" data-fill-palette-color="accent" id="wb-0"><path d="M92.07 9H7.93a6.17 6.17 0 0 0-6.17 6.17V84.81A6.17 6.17 0 0 0 7.93 91H92.07a6.17 6.17 0 0 0 6.17-6.17V15.19A6.17 6.17 0 0 0 92.07 9Zm-50 8.07h0a4.26 4.26 0 0 1 0 8.53h0a4.26 4.26 0 0 1 0-8.53Zm-12.39 0h0a4.26 4.26 0 0 1 0 8.53h0a4.26 4.26 0 0 1 0-8.53Zm-12.39 0h0a4.26 4.26 0 0 1 0 8.53h0a4.26 4.26 0 0 1 0-8.53ZM85.9 48.31V78.64H14.1V33.7H85.9ZM33.58 59.51l2.83 0.5a14.71 14.71 0 0 0 1.46 3.53l-1.65 2.35a2.18 2.18 0 0 0 0.24 2.79l1.7 1.7a2.18 2.18 0 0 0 2.79 0.24L43.3 69a14.65 14.65 0 0 0 3.53 1.46l0.5 2.83a2.18 2.18 0 0 0 2.14 1.8h2.4A2.18 2.18 0 0 0 54 73.26l0.5-2.83A14.62 14.62 0 0 0 58 69l2.35 1.65a2.18 2.18 0 0 0 2.79-0.24l1.7-1.7a2.18 2.18 0 0 0 0.24-2.79l-1.65-2.36A14.68 14.68 0 0 0 64.94 60l2.83-0.5a2.18 2.18 0 0 0 1.8-2.14V55a2.18 2.18 0 0 0-1.8-2.14l-2.83-0.5a14.66 14.66 0 0 0-1.46-3.53l1.65-2.35a2.18 2.18 0 0 0-0.24-2.79L63.18 42a2.18 2.18 0 0 0-2.79-0.24L58 43.37a14.65 14.65 0 0 0-3.53-1.46L54 39.07a2.18 2.18 0 0 0-2.14-1.8h-2.4a2.18 2.18 0 0 0-2.14 1.8l-0.5 2.83a14.69 14.69 0 0 0-3.53 1.46l-2.35-1.65a2.18 2.18 0 0 0-2.79 0.24l-1.7 1.7a2.18 2.18 0 0 0-0.24 2.79l1.65 2.35a14.7 14.7 0 0 0-1.46 3.53l-2.83 0.5A2.18 2.18 0 0 0 31.78 55v2.4A2.18 2.18 0 0 0 33.58 59.51Zm17.1-9.87a6.53 6.53 0 1 1-6.53 6.53A6.53 6.53 0 0 1 50.67 49.64Z" fill="#000000" data-fill-palette-color="accent"></path></svg></g></svg></g></svg></g></svg></g></svg></g><defs></defs></svg><rect width="395.52" height="120.55110501224299" fill="none" stroke="none" visibility="hidden"></rect></g></svg></g></svg>